PathFileType	4	(X/Y/Z)	 s04c0001.trc
DataRate	CameraRate	NumFrames	NumMarkers	Units	OrigDataRate	OrigDataStartFrame	OrigNumFrames
200	200	4	49	mm	200	251	2000
Frame#	Time	racr			lacr			c7			jug			rlel			rdr			llel			ldr			s2			lic			ric			lasi			rasi			rpsi			lpsi			rgt			lgt			rth1			rth2			rth3			rth4			rlfc			rmfc			rsh1			rsh2			rsh3			rsh4			rlmal			rmmal			rcal			rtoe			rmt5			rmt1			lth1			lth2			lth4			lth3			llfc			lmfc			lsh1			lsh2			lsh3			lsh4			llmal			lmmal			lcal			ltoe			lmt1			lmt5			
		X1	Y1	Z1	X2	Y2	Z2	X3	Y3	Z3	X4	Y4	Z4	X5	Y5	Z5	X6	Y6	Z6	X7	Y7	Z7	X8	Y8	Z8	X9	Y9	Z9	X10	Y10	Z10	X11	Y11	Z11	X12	Y12	Z12	X13	Y13	Z13	X14	Y14	Z14	X15	Y15	Z15	X16	Y16	Z16	X17	Y17	Z17	X18	Y18	Z18	X19	Y19	Z19	X20	Y20	Z20	X21	Y21	Z21	X22	Y22	Z22	X23	Y23	Z23	X24	Y24	Z24	X25	Y25	Z25	X26	Y26	Z26	X27	Y27	Z27	X28	Y28	Z28	X29	Y29	Z29	X30	Y30	Z30	X31	Y31	Z31	X32	Y32	Z32	X33	Y33	Z33	X34	Y34	Z34	X35	Y35	Z35	X36	Y36	Z36	X37	Y37	Z37	X38	Y38	Z38	X39	Y39	Z39	X40	Y40	Z40	X41	Y41	Z41	X42	Y42	Z42	X43	Y43	Z43	X44	Y44	Z44	X45	Y45	Z45	X46	Y46	Z46	X47	Y47	Z47	X48	Y48	Z48	X49	Y49	Z49	
251	1.2550	164.293438	1557.667986	281.942443	191.186585	1555.931438	-82.173078	116.241630	1589.822960	83.830507	247.980275	1525.510413	97.863762	90.398871	1216.763664	374.488762	202.616259	976.766965	487.161578	153.998317	1241.095416	-196.128464	296.738932	986.644771	-280.331501	62.390118	1053.644434	96.944213	236.739173	1110.707408	-50.738928	198.076860	1101.407820	272.605644	284.140707	1055.857647	3.866804	264.985009	1060.357870	231.445551	78.597169	1088.807845	140.591045	80.713116	1084.524488	61.800304	163.790884	1001.104526	276.698687	187.723346	955.697354	-68.702453	178.997601	865.846672	298.629726	193.951497	779.190041	289.071677	167.047768	699.047418	279.387150	229.877952	778.586498	279.332156	153.453115	547.981144	249.502725	161.133088	525.461364	139.322144	105.178861	425.583114	267.996459	121.369082	336.116205	259.677545	88.532024	256.953586	242.941650	157.450058	335.452571	245.610777	89.140809	103.165233	231.603309	138.427608	111.344429	159.371928	48.181114	68.257965	168.115271	314.044873	83.384259	304.774839	232.149883	52.836323	326.677887	279.348415	49.969216	227.717046	190.453531	862.179491	-81.203499	210.517664	777.377266	-78.828431	245.880601	776.136437	-68.762943	184.477136	692.397082	-73.200269	163.919652	551.696653	-54.380084	189.773965	521.989043	50.043971	147.910588	423.520128	-80.868781	170.472874	339.698842	-68.236402	147.226626	253.764037	-67.787262	199.782487	341.286746	-42.121781	146.807533	104.440581	-63.894355	154.792226	100.166238	21.980893	80.131744	77.270556	-14.642623	376.905284	83.023486	-57.745554	312.813151	55.084247	0.010855	302.206251	43.179163	-111.037769	
252	1.2600	164.313741	1557.661585	281.957434	191.220708	1555.932977	-82.169217	116.285692	1589.841544	83.855987	247.988476	1525.500440	97.888589	90.394450	1216.752588	374.498131	202.594237	976.753719	487.168402	154.022202	1241.110944	-196.116555	296.762564	986.668171	-280.342931	62.390087	1053.644441	96.944123	236.757870	1110.713309	-50.729714	198.089100	1101.410847	272.625815	284.148652	1055.854162	3.877816	264.994432	1060.364690	231.454140	78.597254	1088.807837	140.591024	80.713603	1084.529699	61.798151	163.780669	1001.099272	276.707498	187.571190	955.487023	-68.143097	178.989397	865.845758	298.627082	193.960885	779.195799	289.073562	167.029502	699.043856	279.382841	229.892149	778.578284	279.314942	153.447087	547.982911	249.506018	161.137691	525.443254	139.330200	105.166334	425.607426	268.013783	121.365248	336.107856	259.694681	88.519298	256.972789	242.950393	157.459215	335.460375	245.610912	89.147797	103.172898	231.611553	138.423212	111.344530	159.370789	48.182536	68.254542	168.116172	314.048656	83.382771	304.778680	232.175153	52.845678	326.676574	279.335760	49.975311	227.701017	190.505352	862.156953	-81.188664	210.522336	777.396818	-78.842554	245.888404	776.142767	-68.764515	184.475949	692.397824	-73.189780	163.916383	551.697283	-54.379243	189.756909	521.968311	50.032482	147.910554	423.519907	-80.868939	170.472664	339.698490	-68.236633	147.230614	253.761365	-67.788646	199.761530	341.285120	-42.110154	146.795001	104.441907	-63.890425	154.793064	100.163710	21.984333	80.118533	77.278069	-14.630189	376.898745	83.015327	-57.752908	312.796725	55.063849	-0.008820	302.191344	43.171736	-111.042524	
253	1.2650	164.336294	1557.642877	281.990310	191.230992	1555.949888	-82.129421	116.302442	1589.841634	83.911911	248.021013	1525.503137	97.901958	90.388880	1216.750490	374.517706	202.577478	976.732891	487.180582	154.033928	1241.131879	-196.113960	296.779300	986.683820	-280.369570	62.408753	1053.647596	96.936314	236.794635	1110.721343	-50.727984	198.073571	1101.393505	272.622563	284.161704	1055.860163	3.887817	265.005503	1060.349608	231.449042	78.620709	1088.804533	140.590027	80.732292	1084.531276	61.806428	163.802025	1001.106068	276.704765	187.583719	955.490228	-68.142475	179.006293	865.838792	298.621487	193.955524	779.181176	289.080454	167.058263	699.038602	279.375468	229.905485	778.572912	279.328768	153.436538	547.991544	249.505845	161.159481	525.446227	139.332175	105.179954	425.598025	267.997329	121.367697	336.105581	259.685444	88.526843	256.952585	242.949151	157.462753	335.444358	245.608224	89.153777	103.168145	231.608724	138.416947	111.346601	159.361838	48.180926	68.257768	168.114794	314.038295	83.373272	304.782587	232.188573	52.847152	326.682758	279.331613	49.981433	227.719207	190.522887	862.153711	-81.186717	210.549979	777.374683	-78.819724	245.908934	776.127733	-68.741676	184.481135	692.392532	-73.180663	163.932674	551.697840	-54.388134	189.764623	521.978149	50.025328	147.917088	423.518571	-80.861571	170.472459	339.698755	-68.236767	147.225222	253.760602	-67.788756	199.770077	341.293102	-42.110073	146.776850	104.458613	-63.882619	154.803253	100.168712	21.990370	80.126053	77.273792	-14.630476	376.910301	83.013174	-57.745308	312.812870	55.073630	-0.008182	302.186577	43.201645	-111.025882	
254	1.2700	164.363059	1557.639346	281.994068	191.278831	1555.971172	-82.114965	116.339193	1589.848997	83.958361	248.037012	1525.507500	97.926397	90.382771	1216.733205	374.538951	202.564176	976.719123	487.199270	154.053419	1241.151475	-196.113779	296.812958	986.712308	-280.378204	62.414343	1053.649067	96.924545	236.803960	1110.717703	-50.726499	198.076797	1101.402933	272.620686	284.182376	1055.854572	3.897255	264.994679	1060.344468	231.441223	78.620768	1088.804522	140.589995	80.728095	1084.529870	61.790554	163.800497	1001.103501	276.717360	187.615749	955.479821	-68.128178	179.001433	865.842603	298.626197	193.960982	779.193783	289.090671	167.038434	699.052860	279.390728	229.921344	778.591173	279.356287	153.443412	547.983323	249.513315	161.157013	525.451223	139.336079	105.179103	425.583395	267.996343	121.375928	336.100272	259.700017	88.536959	256.959692	242.950139	157.470655	335.458066	245.604521	89.143614	103.170050	231.601405	138.429465	111.342742	159.379970	48.183444	68.261302	168.112725	314.047959	83.386650	304.778152	232.161580	52.837276	326.682687	279.336622	49.968129	227.699254	190.535424	862.152645	-81.184856	210.561106	777.378519	-78.833980	245.916686	776.123976	-68.741660	184.498687	692.403856	-73.200375	163.923847	551.702466	-54.375716	189.771187	521.973052	50.042234	147.909777	423.530366	-80.876817	170.494155	339.702408	-68.239034	147.227519	253.759230	-67.783058	199.774782	341.295493	-42.109992	146.794804	104.442092	-63.890422	154.814544	100.146378	21.994828	80.119088	77.286402	-14.634287	376.903738	83.005073	-57.752649	312.808874	55.070139	-0.016352	302.221315	43.179312	-111.021689	
